<?xml version="1.0" encoding="utf-8"?>
<!-- Generator: Adobe Illustrator 22.0.0, SVG Export Plug-In . SVG Version: 6.00 Build 0)  -->
<svg version="1.1" xmlns="http://www.w3.org/2000/svg" xmlns:xlink="http://www.w3.org/1999/xlink" x="0px" y="0px"
	 viewBox="0 0 107.2 135.1" style="enable-background:new 0 0 107.2 135.1;" xml:space="preserve">
<style type="text/css">
	.st0{fill:#8B8B94;stroke:#000000;stroke-width:5;stroke-miterlimit:10;}
	.st1{fill:#FFFFFF;stroke:#000000;stroke-width:5;stroke-miterlimit:10;}
	.st2{fill:#0DFF3F;stroke:#000000;stroke-width:5;stroke-linejoin:round;stroke-miterlimit:10;}
	.st3{fill:#0DFF3F;stroke:#000000;stroke-width:5;stroke-linecap:round;stroke-linejoin:round;stroke-miterlimit:10;}
</style>
<g id="Layer_2_1_">
	<g id="mac">
		<g>
			<path id="mainbox" class="st0" d="M3.2,17.5v92.1c0,2.4,2,4.4,4.4,4.4h92.2c2.4,0,4.4-2,4.4-4.4V17.4c0-7.3-5.9-13.2-13.2-13.2
				H16.4C9.1,4.3,3.2,10.2,3.2,17.5z"/>
			<path class="st1" d="M16.3,25.1v50.5c0,4.2,3.4,7.7,7.7,7.7h59.3c4.2,0,7.7-3.4,7.7-7.7V25.1c0-4.2-3.4-7.7-7.7-7.7H24
				C19.8,17.4,16.3,20.9,16.3,25.1z"/>
			<path class="st0" d="M8.9,114h89.2c0.9,0,1.7,0.8,1.7,1.7v11.5c0,2.4-2,4.4-4.4,4.4H11.9c-2.4,0-4.4-2-4.4-4.4v-11.9
				C7.5,114.6,8.1,114,8.9,114z"/>
		</g>
		<g id="eyes">
			<path id="left" d="M38.3,44.1c-1.4,0-2.5-1.1-2.5-2.5v-8.8c0-1.4,1.1-2.5,2.5-2.5s2.5,1.1,2.5,2.5v8.8
				C40.8,43,39.7,44.1,38.3,44.1z"/>
			<path id="right" d="M69,44.1c-1.4,0-2.5-1.1-2.5-2.5v-8.8c0-1.4,1.1-2.5,2.5-2.5s2.5,1.1,2.5,2.5v8.8C71.5,43,70.4,44.1,69,44.1z
				"/>
		</g>
		<g id="nosenmouth">
			<path id="nose" class="st2" d="M50.5,57.5c0,0,3.3,1.1,5.3-0.3c1.3-0.9,2.2-3,0.9-16.3c-0.4-4.4-0.9-8-0.9-8s0.5,3.6,0.9,8
				c1.3,13.4,0.4,15.4-0.9,16.3C53.7,58.6,50.5,57.5,50.5,57.5z"/>
			<path id="mouth" class="st2" d="M42.7,65.7c0.7,0.7,4.4,4.6,10.5,4.8c6.6,0.2,10.8-4.1,11.4-4.8c-0.6,0.7-4.8,5-11.4,4.8
				C47.1,70.4,43.4,66.5,42.7,65.7z"/>
		</g>
	</g>
	<path id="slot2" class="st3" d="M66.8,96.5h22H66.8z"/>
	<path id="slot1" class="st2" d="M18.5,100.9h8.8H18.5z"/>
</g>
</svg>
