<?xml version="1.0" encoding="utf-8"?>
<!-- Generator: Adobe Illustrator 22.0.0, SVG Export Plug-In . SVG Version: 6.00 Build 0)  -->
<svg version="1.1" id="Layer_1" xmlns="http://www.w3.org/2000/svg" xmlns:xlink="http://www.w3.org/1999/xlink" x="0px" y="0px"
	 viewBox="0 0 382.6 309.6" style="enable-background:new 0 0 382.6 309.6;" xml:space="preserve">
<style type="text/css">
	.st0{fill:#202743;}
</style>
<path class="st0" d="M1.1,95.6c1.7-12.5,5.8-42.9,31-67c24.5-23.4,54.1-26.8,66-28c31.8-3.2,45.3,8,79,14c22.8,4,56.7,6,101-6
	c7.2-0.9,27.5-2.5,46,10c22.2,15,26.8,40.1,29,52c4.8,26-2.3,41.1-5,61c-9.3,68.5,46.8,95.2,32,132c-18,44.7-117.1,45.6-155,46
	c-39.6,0.4-68.8-6.4-85-11c-31-8.8-60.5-17.2-86-43c-23.1-23.4-30.9-48.9-42-85C3.6,142.8-2.6,122.7,1.1,95.6z"/>
</svg>
